<svg width="24" height="24" viewBox="0 0 24 24" fill="none" xmlns="http://www.w3.org/2000/svg">
<path d="M18.1286 8.74241C18.1837 8.41568 18.107 8.08045 17.9155 7.81008C17.724 7.5397 17.4332 7.35619 17.1067 7.2997L10.1365 6.10976C9.97463 6.08213 9.80894 6.08665 9.64885 6.12305C9.48877 6.15946 9.33742 6.22704 9.20345 6.32194C8.93289 6.51359 8.74954 6.80487 8.69375 7.13171C8.63795 7.45854 8.71427 7.79416 8.90593 8.06472C9.09758 8.33528 9.38886 8.51863 9.7157 8.57443L13.711 9.2565L6.38157 14.4484C6.11104 14.64 5.92772 14.9312 5.87193 15.258C5.81614 15.5848 5.89246 15.9204 6.08409 16.1909C6.27571 16.4614 6.56696 16.6448 6.89375 16.7005C7.22054 16.7563 7.55612 16.68 7.82664 16.4884L15.1561 11.2965L14.474 15.2919C14.4464 15.4537 14.4509 15.6194 14.4873 15.7795C14.5237 15.9396 14.5913 16.0909 14.6862 16.2249C14.7811 16.3589 14.9015 16.4728 15.0404 16.5603C15.1793 16.6477 15.3342 16.707 15.496 16.7346C15.6578 16.7622 15.8235 16.7577 15.9836 16.7213C16.1437 16.6849 16.295 16.6173 16.429 16.5224C16.563 16.4275 16.6769 16.3072 16.7644 16.1682C16.8518 16.0293 16.9111 15.8745 16.9387 15.7126L18.1286 8.74241Z" fill="#E7F0DC"/>
</svg>
